<svg xmlns="http://www.w3.org/2000/svg" viewBox="0 0 29 5" fill="currentColor" role="img" aria-label="beviq">
  <title>beviq</title>
  <circle cx=".5" cy=".5" r=".5"/>
  <circle cx="1.5" cy=".5" r=".5"/>
  <circle cx="2.5" cy=".5" r=".5"/>
  <circle cx="3.5" cy=".5" r=".5"/>
  <circle cx="6.5" cy=".5" r=".5"/>
  <circle cx="7.5" cy=".5" r=".5"/>
  <circle cx="8.5" cy=".5" r=".5"/>
  <circle cx="9.5" cy=".5" r=".5"/>
  <circle cx="10.5" cy=".5" r=".5"/>
  <circle cx="12.5" cy=".5" r=".5"/>
  <circle cx="16.5" cy=".5" r=".5"/>
  <circle cx="18.5" cy=".5" r=".5"/>
  <circle cx="19.5" cy=".5" r=".5"/>
  <circle cx="20.5" cy=".5" r=".5"/>
  <circle cx="21.5" cy=".5" r=".5"/>
  <circle cx="22.5" cy=".5" r=".5"/>
  <circle cx="25.5" cy=".5" r=".5"/>
  <circle cx="26.5" cy=".5" r=".5"/>
  <circle cx="27.5" cy=".5" r=".5"/>
  <circle cx=".5" cy="1.5" r=".5"/>
  <circle cx="4.5" cy="1.5" r=".5"/>
  <circle cx="6.5" cy="1.5" r=".5"/>
  <circle cx="12.5" cy="1.5" r=".5"/>
  <circle cx="16.5" cy="1.5" r=".5"/>
  <circle cx="20.5" cy="1.5" r=".5"/>
  <circle cx="24.5" cy="1.5" r=".5"/>
  <circle cx="28.5" cy="1.5" r=".5"/>
  <circle cx=".5" cy="2.5" r=".5"/>
  <circle cx="1.5" cy="2.5" r=".5"/>
  <circle cx="2.5" cy="2.5" r=".5"/>
  <circle cx="3.5" cy="2.5" r=".5"/>
  <circle cx="6.5" cy="2.5" r=".5"/>
  <circle cx="7.5" cy="2.5" r=".5"/>
  <circle cx="8.5" cy="2.5" r=".5"/>
  <circle cx="9.5" cy="2.5" r=".5"/>
  <circle cx="13.5" cy="2.5" r=".5"/>
  <circle cx="15.5" cy="2.5" r=".5"/>
  <circle cx="20.5" cy="2.5" r=".5"/>
  <circle cx="24.5" cy="2.5" r=".5"/>
  <circle cx="28.5" cy="2.5" r=".5"/>
  <circle cx=".5" cy="3.5" r=".5"/>
  <circle cx="4.5" cy="3.5" r=".5"/>
  <circle cx="6.5" cy="3.5" r=".5"/>
  <circle cx="13.5" cy="3.5" r=".5"/>
  <circle cx="15.5" cy="3.5" r=".5"/>
  <circle cx="20.5" cy="3.5" r=".5"/>
  <circle cx="24.5" cy="3.5" r=".5"/>
  <circle cx="27.5" cy="3.5" r=".5"/>
  <circle cx="28.5" cy="3.5" r=".5"/>
  <circle cx=".5" cy="4.5" r=".5"/>
  <circle cx="1.5" cy="4.5" r=".5"/>
  <circle cx="2.5" cy="4.5" r=".5"/>
  <circle cx="3.5" cy="4.5" r=".5"/>
  <circle cx="6.5" cy="4.5" r=".5"/>
  <circle cx="7.5" cy="4.5" r=".5"/>
  <circle cx="8.5" cy="4.5" r=".5"/>
  <circle cx="9.5" cy="4.5" r=".5"/>
  <circle cx="10.5" cy="4.5" r=".5"/>
  <circle cx="14.5" cy="4.5" r=".5"/>
  <circle cx="18.5" cy="4.5" r=".5"/>
  <circle cx="19.5" cy="4.5" r=".5"/>
  <circle cx="20.5" cy="4.5" r=".5"/>
  <circle cx="21.5" cy="4.5" r=".5"/>
  <circle cx="22.5" cy="4.5" r=".5"/>
  <circle cx="25.5" cy="4.5" r=".5"/>
  <circle cx="26.5" cy="4.5" r=".5"/>
  <circle cx="27.5" cy="4.5" r=".5"/>
  <circle cx="28.5" cy="4.5" r=".5"/>
</svg>
